# xmcd
#
# Track frame offsets: 
#        150
#        5001
#        23847
#        45209
#        62349
#        82485
#        105279
#        125432
#        141732
#        163206
#        184542
#        203436
#
# Disc length: 3025 seconds
#
# Revision: 6
# Processed by: cddbd v1.5.1PL2 Copyright (c) Steve Scherf et al.
# Submitted via: ExactAudioCopy v0.95b4
#
DISCID=9a0bcf0c
DTITLE=§U§t«f∆ı«R - 392°„mikuni shimokawa BEST SELLECTION°„
DYEAR=2000
DGENRE=JPop
TTITLE0=Party -is not over- (overture)
TTITLE1=POPCORN
TTITLE2=«ß«∆«Ê«|
TTITLE3=Pavement
TTITLE4=TRUE -album version-
TTITLE5=«F«J«F°B«Y«O«K«U -album mix-
TTITLE6=¨\\«s«Q∆Í™·
TTITLE7=tomorrow
TTITLE8=Alone
TTITLE9=BELIEVER°„Æ»•ﬂ«H«U∫q°„ (Studio live version)
TTITLE10=«V∆˛«e«q(«ß««{∆„«Ã∆„«¥«„«Ô)
TTITLE11=If°„«i∆˝«iƒ@∆Í∆Ú∆Ò«Q∆Ï«Q«p°„ (CMJK remix)
EXTD=YEAR: 2002
EXTT0=
EXTT1=
EXTT2=
EXTT3=
EXTT4=
EXTT5=
EXTT6=
EXTT7=
EXTT8=
EXTT9=
EXTT10=
EXTT11=
PLAYORDER=
